<?xml version="1.0" encoding="UTF-8"?>
<svg version="1.1" xmlns="http://www.w3.org/2000/svg" width="500" height="500">
<path d="M0 0 C0.86040894 0.36704041 1.72081787 0.73408081 2.6072998 1.11224365 C5.45168681 2.32881577 8.28813373 3.56287953 11.125 4.796875 C13.138135 5.66140747 15.15181759 6.52466585 17.16601562 7.38671875 C21.37766461 9.19114229 25.58638983 11.00214842 29.79296875 12.81835938 C38.74957908 16.68265361 47.72909205 20.49293773 56.70727539 24.3067627 C59.64857132 25.55689345 62.58906339 26.8088961 65.52929688 28.06152344 C78.88322184 33.75024584 92.25021696 39.40738533 105.625 45.046875 C121.9584989 51.93390995 138.2752997 58.85925921 154.58300781 65.80712891 C168.91894117 71.91422704 183.26665495 77.9926655 197.625 84.046875 C213.9584989 90.93390995 230.2752997 97.85925921 246.58300781 104.80712891 C260.91894117 110.91422704 275.26665495 116.9926655 289.625 123.046875 C305.94878675 129.92981481 322.25650636 136.84961864 338.55380249 143.79504395 C349.51365664 148.46551505 360.47827998 153.12409786 371.45703125 157.75 C372.46776703 158.17599487 373.47850281 158.60198975 374.51986694 159.04089355 C379.32337003 161.06498105 384.12775626 163.08693033 388.93359375 165.10546875 C394.003922 167.23740747 399.06608091 169.38802472 404.125 171.546875 C404.98542908 171.91192139 405.84585815 172.27696777 406.73236084 172.65307617 C409.25688329 173.7277331 411.77557444 174.81501661 414.29296875 175.90625 C415.0552327 176.22901917 415.81749664 176.55178833 416.6028595 176.88433838 C420.15378043 178.43981659 421.92683247 179.24962371 424.125 182.546875 C424.5625 185.484375 424.5625 185.484375 424.125 188.546875 C420.19749463 192.39096941 415.69071219 194.24030989 410.69140625 196.28515625 C409.84730698 196.6383342 409.0032077 196.99151215 408.13352966 197.35539246 C406.29272077 198.12457323 404.45037246 198.89007778 402.60668945 199.65234375 C398.58647391 201.31462908 394.57374761 202.99466082 390.56039429 204.6734314 C388.4156146 205.57036246 386.27044389 206.46635899 384.12490845 207.36148071 C372.9058048 212.04469926 361.72344265 216.81302304 350.54293823 221.5874939 C332.91970091 229.11221137 315.2831001 236.60435377 297.625 244.046875 C275.29468886 253.45928273 253.00176739 262.95881744 230.71002197 272.46212769 C216.55944895 278.49414104 202.40135297 284.50843413 188.24310303 290.5223999 C182.61307651 292.91406085 176.98409681 295.30817499 171.35546875 297.703125 C155.00740337 304.65810503 138.65220713 311.59554489 122.28216553 318.49865723 C104.44377787 326.0209679 86.622245 333.58199203 68.8125 341.171875 C67.10645096 341.8987854 67.10645096 341.8987854 65.36593628 342.64038086 C54.61654782 347.22048261 43.86788665 351.80227698 33.12187195 356.39028931 C29.45369132 357.95591952 25.78475378 359.5197699 22.1156311 361.08319092 C20.44646383 361.79494279 18.7776458 362.50751442 17.10922241 363.2210083 C-12.24701977 375.77461717 -12.24701977 375.77461717 -17.875 373.546875 C-21.29492993 370.74815173 -22.64582512 369.01407531 -23.33390331 364.60893047 C-23.51712014 360.74795401 -23.53231374 356.90356633 -23.49645996 353.04014587 C-23.50078981 351.53709606 -23.50730659 350.03405121 -23.51582003 348.53101927 C-23.53281945 344.40384289 -23.51862513 340.27727277 -23.49930525 336.15012825 C-23.48388653 331.69812983 -23.49727793 327.24620612 -23.50704956 322.79420471 C-23.52158269 314.07426782 -23.50933571 305.35456359 -23.48793632 296.63464873 C-23.46393755 286.48335994 -23.46563998 276.3321246 -23.46824223 266.18081374 C-23.4719332 248.07093358 -23.45109945 229.96116313 -23.41699219 211.85131836 C-23.38389543 194.27153755 -23.36973463 176.69187188 -23.37597656 159.11206055 C-23.38273794 139.97511895 -23.3802879 120.83822561 -23.36061716 101.70129114 C-23.35905793 100.18391547 -23.35905793 100.18391547 -23.3574672 98.63588573 C-23.35537629 96.60408333 -23.35326531 94.57228096 -23.35113403 92.5404786 C-23.34423376 85.46146488 -23.34356989 78.38246601 -23.34501648 71.30344963 C-23.34645498 62.67942426 -23.3367872 54.05549287 -23.31307012 45.4314987 C-23.30119618 41.02989479 -23.29409424 36.62842201 -23.29990768 32.22680283 C-23.30506962 28.19953528 -23.29642651 24.17254506 -23.27663308 20.14532501 C-23.27188322 18.6864825 -23.27220614 17.22761307 -23.27804345 15.7687745 C-23.2852005 13.78921051 -23.27217982 11.8096041 -23.25811005 9.83007717 C-23.25653884 8.72948261 -23.25496764 7.62888804 -23.25334883 6.49494213 C-22.82341418 3.14492196 -21.84342472 1.26508508 -19.875 -1.453125 C-13.66982767 -6.10700425 -6.25133691 -2.75495734 0 0 Z M71.125 88.546875 C68.63652852 92.27958222 68.8666798 94.20657118 68.85084534 98.66952515 C68.84560866 99.39951646 68.84037198 100.12950778 68.83497661 100.88162005 C68.81994209 103.33438373 68.81927071 105.78693944 68.81860352 108.23974609 C68.81098436 109.99560398 68.80255729 111.75145852 68.79338074 113.50730896 C68.77140518 118.28211454 68.76263278 123.05685608 68.75755429 127.83170652 C68.75391443 130.81360989 68.74767632 133.79549639 68.7405529 136.77739334 C68.71604812 147.1767984 68.70300421 157.57615349 68.69946289 167.97558594 C68.69582646 177.67492241 68.66592603 187.37394267 68.62405831 197.07318246 C68.58938937 205.3959809 68.57391504 213.71867437 68.57321686 222.04154456 C68.5724229 227.0144453 68.56362997 231.98702406 68.53521919 236.95985031 C68.50909657 241.63686992 68.5068007 246.31329927 68.52287483 250.99035835 C68.52469395 252.70725984 68.51795696 254.42419482 68.50205612 256.14102364 C68.48167145 258.48480413 68.49209983 260.82650456 68.51026917 263.17025757 C68.50825784 264.4817597 68.50624651 265.79326183 68.50417423 267.14450645 C69.28393143 271.41788154 70.77379381 272.87277616 74.125 275.546875 C78.84060924 277.283007 81.88067727 276.18644711 86.26313782 274.24833679 C87.42259163 273.70775383 87.42259163 273.70775383 88.60546875 273.15625 C89.4337468 272.78510574 90.26202484 272.41396149 91.11540222 272.03157043 C93.85429704 270.80060843 96.58306546 269.54865586 99.3125 268.296875 C101.24552948 267.42408787 103.17929948 266.55293915 105.11376953 265.68334961 C109.13293709 263.87513352 113.1488195 262.05989206 117.16259766 260.23974609 C125.36947663 256.52471098 133.61524867 252.8986602 141.86105347 249.27108765 C146.32088918 247.3077862 150.77775434 245.33777396 155.234375 243.3671875 C156.57108498 242.77616493 156.57108498 242.77616493 157.93479919 242.17320251 C169.15657787 237.20901796 180.36555599 232.2160257 191.57611084 227.2265625 C204.37664374 221.53065945 217.19255453 215.87122643 230.02545166 210.24862671 C236.62481467 207.35645676 243.22140573 204.45796919 249.81811523 201.55975342 C252.08984105 200.56231216 254.36224917 199.56643914 256.63476562 198.57080078 C260.08876212 197.0566392 263.5392503 195.5347545 266.98706055 194.00656128 C268.81010744 193.20056497 270.63644409 192.40202229 272.46289062 191.60375977 C273.54248047 191.12350342 274.62207031 190.64324707 275.734375 190.1484375 C277.1260791 189.53476318 277.1260791 189.53476318 278.54589844 188.90869141 C281.40706322 187.39794006 283.72736579 185.71750482 286.125 183.546875 C286.95833333 181.046875 286.95833333 181.046875 286.125 178.546875 C282.27988929 174.93876659 278.08814011 172.94323636 273.328125 170.8515625 C272.55968765 170.50700012 271.79125031 170.16243774 270.99952698 169.80743408 C268.46118467 168.6716639 265.91822108 167.54667317 263.375 166.421875 C261.57358286 165.6188403 259.77239876 164.81528266 257.97143555 164.01123047 C243.95229426 157.76209984 229.8973811 151.59309088 215.83642578 145.4387207 C203.12143148 139.87250358 190.43065939 134.25334186 177.75 128.609375 C156.69852297 119.2422812 135.63868773 109.89454194 114.54901123 100.6137085 C112.94849366 99.90930344 111.34810847 99.2045975 109.74786377 98.49957275 C105.40133907 96.58475642 101.05270175 94.67493818 96.69992065 92.77438354 C95.4188573 92.21430052 94.13849876 91.65260209 92.85891724 91.08914185 C91.12939313 90.32808852 89.39680446 89.57401079 87.6640625 88.8203125 C86.70709473 88.40185059 85.75012695 87.98338867 84.76416016 87.55224609 C79.08282866 85.38797939 76.41943452 85.25256019 71.125 88.546875 Z " fill="#040404" transform="translate(39.875,30.453125)"/>
<path d="M0 0 C3.6238342 3.31622157 5.27171023 5.51986282 5.62361908 10.45687199 C5.64842464 12.2248227 5.6458052 13.99328861 5.62145996 15.76124573 C5.62784878 16.73881346 5.6342376 17.7163812 5.64082003 18.72357219 C5.65607054 21.99655226 5.6356075 25.268322 5.61523438 28.54125977 C5.61873551 30.88868613 5.62439399 33.23611012 5.63204956 35.58352661 C5.64630726 41.95742806 5.62922632 48.33089862 5.60576439 54.70475888 C5.58770916 60.69589503 5.59090067 66.68700781 5.59324223 72.67816221 C5.59693092 84.5487803 5.57611899 96.41923086 5.54199219 108.28979492 C5.50889427 119.80676507 5.49473532 131.32355942 5.50097656 142.84057617 C5.50774132 155.38531335 5.50527851 167.92997694 5.48561716 180.47470325 C5.48405793 181.46980673 5.48405793 181.46980673 5.4824672 182.48501332 C5.48143006 183.14591487 5.48039291 183.80681642 5.47932434 184.48774529 C5.4711425 189.78947975 5.46844224 195.09117547 5.47001648 200.39291573 C5.47089432 206.63345814 5.4567061 212.87379 5.43078995 219.11427689 C5.42361759 221.40684043 5.42154964 223.69942636 5.42490768 225.99199867 C5.42861223 229.11680813 5.41391016 232.24099965 5.39440918 235.36573792 C5.39973711 236.27701763 5.40506503 237.18829735 5.41055441 238.1271916 C5.35891966 242.90937731 5.10957384 246.11502566 2 250 C-1.44774329 252.58580747 -4.81314368 252.25678749 -9 252 C-11.75168408 251.06985327 -14.26900719 250.09268345 -16.90234375 248.90625 C-18.05650284 248.40525284 -18.05650284 248.40525284 -19.23397827 247.89413452 C-21.80702518 246.77428572 -24.37196903 245.63694957 -26.9375 244.5 C-28.77892759 243.69537203 -30.62098626 242.892187 -32.46362305 242.09033203 C-36.47812002 240.34252989 -40.49010495 238.58911188 -44.50097656 236.83300781 C-54.87149649 232.30199886 -65.28473705 227.87017879 -75.69143677 223.4230957 C-92.30992827 216.31827216 -108.91674485 209.18667973 -125.5 202 C-140.58780576 195.46174985 -155.69754677 188.97522785 -170.8125 182.5 C-171.99320068 181.99414368 -173.17390137 181.48828735 -174.39038086 180.96710205 C-185.4159722 176.24358825 -196.44231218 171.52182595 -207.47021484 166.80371094 C-209.952805 165.74154935 -212.43538965 164.67937491 -214.91796875 163.6171875 C-215.52816486 163.3561171 -216.13836098 163.09504669 -216.76704788 162.82606506 C-226.74494559 158.55680277 -236.71913152 154.2789466 -246.69052124 149.99450684 C-252.47781218 147.50860944 -258.26881405 145.03186011 -264.06558228 142.56814575 C-267.13211734 141.26264408 -270.19483155 139.94838726 -273.25634766 138.63116455 C-274.60504257 138.05318104 -275.95542102 137.47910697 -277.30761719 136.90936279 C-279.10142651 136.15310282 -280.88883819 135.38171919 -282.67578125 134.609375 C-283.64427002 134.19655273 -284.61275879 133.78373047 -285.6105957 133.35839844 C-288.23003259 131.86922434 -289.45980592 130.5698231 -291 128 C-291.4375 125.5 -291.4375 125.5 -291 123 C-287.48638439 118.30187469 -282.14659949 116.60168213 -276.9140625 114.38671875 C-275.89111588 113.94480194 -274.86816925 113.50288513 -273.81422424 113.0475769 C-270.421734 111.58491503 -267.0234888 110.13616342 -263.625 108.6875 C-261.2279483 107.65757151 -258.831225 106.62687841 -256.43481445 105.59545898 C-249.56984716 102.64344323 -242.69749877 99.7088625 -235.82357025 96.77778625 C-232.91856624 95.53874861 -230.01425692 94.29808478 -227.10986328 93.05761719 C-217.09652545 88.78226459 -207.07954792 84.51553488 -197.05905151 80.25698853 C-182.06914874 73.88646491 -167.0939928 67.48198843 -152.125 61.0625 C-150.38759048 60.31747726 -150.38759048 60.31747726 -148.61508179 59.55740356 C-142.75397476 57.04400209 -136.89305048 54.53017485 -131.03222656 52.01611328 C-124.01946002 49.00808685 -117.00594271 46.00181409 -109.9921875 42.99609375 C-108.83536972 42.50034348 -107.67855194 42.0045932 -106.48667908 41.49382019 C-101.84177651 39.5033095 -97.19684368 37.51286945 -92.5519104 35.52243042 C-80.43115512 30.32840485 -68.31069663 25.13369103 -56.19168091 19.93560791 C-51.62145808 17.97535757 -47.05106717 16.01549927 -42.4806385 14.05572891 C-39.35486933 12.71538264 -36.22919949 11.37480573 -33.10375977 10.03369141 C-29.65924967 8.55577174 -26.21442464 7.07858848 -22.76953125 5.6015625 C-21.74833694 5.16317047 -20.72714264 4.72477844 -19.67500305 4.27310181 C-18.73271347 3.86925262 -17.79042389 3.46540344 -16.81958008 3.04931641 C-16.00475662 2.69978912 -15.18993317 2.35026184 -14.35041809 1.99014282 C-13.18696114 1.50002213 -13.18696114 1.50002213 -12 1 C-11.14778366 0.62773285 -10.29556732 0.2554657 -9.41752625 -0.12808228 C-5.85494867 -1.41298023 -3.61980629 -1.03423037 0 0 Z M-71.72265625 66.48046875 C-72.75670593 66.92165543 -73.79075562 67.3628421 -74.85614014 67.81739807 C-78.25975051 69.27063897 -81.66114648 70.72898558 -85.0625 72.1875 C-87.45585588 73.21088663 -89.8493313 74.23399376 -92.24291992 75.25683594 C-97.26388956 77.40303184 -102.28369991 79.55191943 -107.30273438 81.70263672 C-113.03439742 84.1587086 -118.76745552 86.61149692 -124.50140476 89.0622263 C-130.08101664 91.44699577 -135.659935 93.83338224 -141.23849487 96.22061157 C-143.57898057 97.22215231 -145.91957305 98.22344357 -148.26028442 99.22445679 C-160.50933668 104.46450246 -172.74401201 109.73664842 -184.94921875 115.078125 C-186.0155806 115.54265076 -187.08194244 116.00717651 -188.18061829 116.48577881 C-189.16346298 116.91747375 -190.14630768 117.3491687 -191.15893555 117.79394531 C-192.02391159 118.17270813 -192.88888763 118.55147095 -193.78007507 118.94171143 C-197.49079028 120.65008992 -197.49079028 120.65008992 -199.875 123.8125 C-200.06896241 127.20684211 -199.15316386 128.33101467 -197 131 C-193.72493972 132.98723287 -190.21546872 134.39696169 -186.6875 135.875 C-185.53145264 136.37418945 -184.37540527 136.87337891 -183.18432617 137.38769531 C-179.64214003 138.9155066 -176.09062324 140.4206843 -172.53796387 141.9239502 C-168.79056021 143.51278013 -165.04808766 145.11310192 -161.30517578 146.71247864 C-152.32407322 150.55013566 -143.3387449 154.37774219 -134.34936523 158.19596863 C-122.96727864 163.03050932 -111.59213039 167.88067015 -100.2265625 172.75390625 C-99.58123503 173.03059772 -98.93590755 173.3072892 -98.2710247 173.59236526 C-92.58879901 176.02893494 -86.90713523 178.46681306 -81.22598267 180.90588379 C-78.86460624 181.91964777 -76.50313966 182.93320177 -74.14157104 183.94651794 C-72.00268214 184.86431007 -69.86401622 185.78262211 -67.72561646 186.70155334 C-66.3028389 187.31201759 -66.3028389 187.31201759 -64.85131836 187.93481445 C-64.03046249 188.28735794 -63.20960663 188.63990143 -62.36387634 189.00312805 C-61.19375755 189.49657967 -61.19375755 189.49657967 -60 190 C-59.13681656 190.36486008 -58.27363312 190.72972015 -57.3842926 191.1056366 C-54.34105631 192.24717399 -52.22906814 192.40363352 -49 192 C-46.30009338 190.20006226 -44.4581135 188.916227 -43 186 C-42.90108872 184.41488378 -42.86494759 182.82566264 -42.85955811 181.23747253 C-42.85384796 180.23225052 -42.84813782 179.2270285 -42.84225464 178.19134521 C-42.84113678 177.08430237 -42.84001892 175.97725952 -42.83886719 174.83666992 C-42.83390228 173.67398087 -42.82893738 172.51129181 -42.82382202 171.31336975 C-42.80917148 167.45239681 -42.80239351 163.59146496 -42.796875 159.73046875 C-42.79257807 157.73071913 -42.78828063 155.73096951 -42.7839005 153.73122007 C-42.7720839 148.15746153 -42.76455028 142.58371298 -42.7611053 137.00994319 C-42.75662592 129.80209607 -42.7390848 122.59443872 -42.7101047 115.38664931 C-42.68848265 109.81544773 -42.67840072 104.24429951 -42.67706418 98.67305642 C-42.67601637 95.34562981 -42.66866879 92.01842215 -42.65224457 88.6910305 C-42.63522422 84.97771134 -42.63705485 81.26485582 -42.64355469 77.55151367 C-42.62973251 75.90005844 -42.62973251 75.90005844 -42.6156311 74.21524048 C-42.54684616 67.07119663 -42.54684616 67.07119663 -46 61 C-53.9333388 56.46666354 -64.13958516 63.22030361 -71.72265625 66.48046875 Z " fill="#060606" transform="translate(478,221)"/>
</svg>
